<svg xmlns="http://www.w3.org/2000/svg" viewBox="0 0 48 48"><path class="cls-1" d="M24,48A24,24,0,1,1,48,24,24,24,0,0,1,24,48ZM24,1A23,23,0,1,0,47,24,23,23,0,0,0,24,1Z"/><circle class="cls-1" cx="24" cy="24" r="8.25"/><path class="cls-1" d="M24,35.1c-7.17,0-13.88-3.94-18.42-10.83L5.4,24l.18-.27C10.12,16.84,16.83,12.9,24,12.9s13.88,3.94,18.42,10.83l.18.27-.18.27C37.88,31.16,31.17,35.1,24,35.1ZM6.6,24C10.94,30.43,17.27,34.1,24,34.1S37.06,30.43,41.4,24C37.06,17.57,30.73,13.9,24,13.9S10.94,17.57,6.6,24Z"/></svg>